<?xml version="1.0" encoding="iso-8859-1"?>
<!-- Generator: Adobe Illustrator 18.1.1, SVG Export Plug-In . SVG Version: 6.00 Build 0)  -->
<svg version="1.1" id="Capa_1" xmlns="http://www.w3.org/2000/svg" xmlns:xlink="http://www.w3.org/1999/xlink" x="0px" y="0px"
	 viewBox="0 0 446.895 446.895" style="enable-background:new 0 0 446.895 446.895;" xml:space="preserve">
<g>
	<g>
		<path style="fill:#010002;" d="M223.447,446.895c-101.311,0-183.738-82.42-183.738-183.738
			c0-93.853,71.811-173.051,164.495-182.712V0l30.95,21.176l132.381,76.066l-132.703,79.055l-30.634,20.275v-77.193
			c-72.283,9.452-126.002,70.158-126.002,143.784c0,80.093,65.158,145.252,145.252,145.252c79.723,0,144.876-64.86,145.234-144.589
			v-30.986h38.504l-0.197,38.033C402.913,368.46,321.787,446.895,223.447,446.895z M216.132,22.614v68.834l-5.531,0.406
			c-89.139,6.57-158.963,81.812-158.963,171.303c0.006,94.736,77.074,171.804,171.81,171.804
			c93.805,0,170.855-76.31,171.756-170.115l0.048-20.079h-14.637v19.082c-0.388,86.305-70.892,156.499-157.167,156.499
			c-86.669,0-157.185-70.51-157.185-157.185c0-82.044,61.644-149.273,143.39-156.38l6.48-0.567v68.148l12.351-8.175l115.417-68.768
			L228.806,31.272L216.132,22.614z"/>
	</g>
</g>
<g>
</g>
<g>
</g>
<g>
</g>
<g>
</g>
<g>
</g>
<g>
</g>
<g>
</g>
<g>
</g>
<g>
</g>
<g>
</g>
<g>
</g>
<g>
</g>
<g>
</g>
<g>
</g>
<g>
</g>
</svg>
